<svg width="57" height="71" viewBox="0 0 57 71" fill="none" xmlns="http://www.w3.org/2000/svg">
<path d="M56.0805 63.6897L47.6532 61.835L45.0413 70.0805C44.8535 70.6734 44.0506 70.7603 43.7403 70.2214L33.3149 52.111C38.4504 50.9983 43.0196 48.3611 46.5281 44.6958L56.8537 62.635C57.1635 63.1732 56.687 63.8232 56.0805 63.6897Z" fill="#FD646F"/>
<path d="M56.0809 63.6896L48.2914 61.9751C47.9301 61.8956 47.568 62.1048 47.4563 62.4574L45.0417 70.0803C44.8539 70.6732 44.0509 70.7601 43.7407 70.2211L34.8093 54.7049L33.3153 52.1107C38.4507 50.998 43.02 48.3608 46.5284 44.6956L48.011 47.2696L56.8542 62.6348C57.1637 63.1732 56.6872 63.8231 56.0809 63.6896Z" fill="#FD646F"/>
<path d="M56.0806 63.6892L48.2917 61.975C47.93 61.8964 47.5683 62.1051 47.4568 62.4568L48.2952 59.8516C48.4082 59.5002 48.7704 59.2928 49.1308 59.3728L55.8333 60.8627L56.8541 62.6355C57.1643 63.1731 56.6868 63.8236 56.0806 63.6892Z" fill="#FC4755"/>
<path d="M23.8482 51.8936L13.258 70.2873C12.9478 70.8263 12.1449 70.7394 11.957 70.1465L9.54227 62.5234C9.43061 62.1709 9.06833 61.9617 8.70719 62.0412L0.917849 63.7555C0.311378 63.8891 -0.165136 63.239 0.144677 62.7009L9.99419 45.589C13.6713 49.0751 18.6313 51.0347 23.8482 51.8936Z" fill="#FD646F"/>
<path d="M11.3883 48.1344L2.61149 63.3821L0.918463 63.7551C0.311992 63.8888 -0.164665 63.2387 0.145148 62.7004L8.52909 48.1344L10.7963 44.1853C11.4068 44.7632 12.0444 45.3125 12.7092 45.8287L11.3883 48.1344Z" fill="#FC4755"/>
<path d="M14.2911 68.4915L13.2575 70.2872C12.9472 70.8262 12.1452 70.7404 11.9565 70.1471L9.54172 62.524C9.43021 62.1709 9.0685 61.9622 8.70679 62.0408L11.3774 61.4533C11.7386 61.3739 12.1007 61.583 12.2124 61.9354L14.2911 68.4915Z" fill="#FC4755"/>
<path d="M10.2323 45.1537L17.1976 48.2947L23.848 51.8936L22.0648 54.9889C17.0924 53.9794 12.4788 51.6649 8.66581 48.2562C8.62006 48.2161 8.57431 48.1759 8.52856 48.1343L10.2323 45.1537Z" fill="#FC4755"/>
<path d="M48.0105 47.2697L46.5279 44.6957L38.6827 48.1584L33.3148 52.1109L33.9181 53.1584L35.3997 55.7315L43.7402 70.2211C44.0504 70.7601 44.8534 70.6732 45.0412 70.0803L45.5723 68.4035L37.2823 53.9636C41.2956 52.5671 44.949 50.295 48.0105 47.2697Z" fill="#FC4755"/>
<path d="M54.4465 26.6717C54.4465 33.6667 51.6944 40.0193 47.2152 44.6957C43.7067 48.361 39.1375 50.9981 34.002 52.1109C32.2278 52.4952 30.3878 52.6973 28.4992 52.6973C27.0581 52.6973 25.6455 52.5797 24.2688 52.3532C19.3192 51.5387 14.84 49.3188 11.2544 46.1153C11.0599 45.9432 10.8698 45.7684 10.6811 45.5891C10.012 44.9553 9.37719 44.2855 8.77672 43.5844C8.20199 42.9104 7.66157 42.2063 7.15689 41.475C5.64142 39.2825 4.45336 36.8431 3.66274 34.2304C2.94075 31.8385 2.55188 29.3017 2.55188 26.6718C2.55188 12.2986 14.1695 0.645996 28.4992 0.645996C31.1198 0.645996 33.6503 1.03601 36.0336 1.76172C38.6399 2.55191 41.0704 3.74355 43.2578 5.26502C43.9869 5.77127 44.6889 6.31326 45.3594 6.89114C46.2573 7.65973 47.1008 8.49009 47.8857 9.37335C51.9674 13.9722 54.4465 20.0322 54.4465 26.6717Z" fill="#FAA515"/>
<path d="M28.4993 45.3126C38.7633 45.3126 47.084 36.9668 47.084 26.6717C47.084 16.3766 38.7633 8.03076 28.4993 8.03076C18.2352 8.03076 9.91455 16.3766 9.91455 26.6717C9.91455 36.9668 18.2352 45.3126 28.4993 45.3126Z" fill="#FAD207"/>
<path d="M47.0834 26.6717C47.0834 36.9664 38.7627 45.3123 28.499 45.3123C18.2353 45.3123 9.91455 36.9664 9.91455 26.6717C9.91455 25.8944 9.96173 25.1286 10.0547 24.3773C11.1812 33.5908 19.0102 40.7235 28.499 40.7235C37.9878 40.7235 45.8167 33.5908 46.9433 24.3773C47.0363 25.1288 47.0834 25.8945 47.0834 26.6717Z" fill="#FAA515"/>
<path fill-rule="evenodd" clip-rule="evenodd" d="M28.499 8.03125C18.2353 8.03125 9.91455 16.3772 9.91455 26.6719C9.91455 36.9666 18.2353 45.3125 28.499 45.3125C38.7627 45.3125 47.0834 36.9666 47.0834 26.6719C47.0834 16.3772 38.7627 8.03125 28.499 8.03125ZM28.499 43.1614C19.4334 43.1614 12.0591 35.7648 12.0591 26.6719C12.0591 17.579 19.4334 10.1824 28.499 10.1824C37.5646 10.1824 44.9389 17.579 44.9389 26.6719C44.9389 35.7648 37.5646 43.1614 28.499 43.1614Z" fill="#FAF063"/>
<path d="M29.1416 16.3635L31.6946 21.5785C31.7985 21.791 32.0008 21.9382 32.235 21.9718L37.9724 22.7962C38.5596 22.8806 38.7945 23.6021 38.3695 24.0159L34.2081 28.068C34.0391 28.2326 33.9622 28.4698 34.0024 28.7021L34.994 34.4315C35.0954 35.0168 34.4799 35.4632 33.9549 35.1851L28.8342 32.4716C28.6249 32.3606 28.3741 32.3606 28.1648 32.4716L23.0441 35.1851C22.5192 35.4633 21.9037 35.017 22.005 34.4315L22.9967 28.7021C23.0368 28.4698 22.9599 28.2326 22.7909 28.068L18.6296 24.0159C18.2045 23.602 18.4394 22.8806 19.0266 22.7962L24.764 21.9718C24.9981 21.9382 25.2004 21.791 25.3045 21.5785L27.8574 16.3635C28.1189 15.8294 28.8801 15.8294 29.1416 16.3635Z" fill="#FAA515"/>
</svg>
