<svg width="48" height="71" viewBox="0 0 48 71" fill="none" xmlns="http://www.w3.org/2000/svg">
<path d="M23.8334 0.645996C12.5628 0.658848 3.4296 9.79221 3.41675 21.0626V34.1876C3.41675 34.993 4.06972 35.646 4.87513 35.646H10.7084C11.5138 35.646 12.1667 34.993 12.1667 34.1876V21.0626C12.1667 14.6193 17.3901 9.396 23.8334 9.396C30.2767 9.396 35.5 14.6193 35.5 21.0626V34.1876C35.5 34.993 36.153 35.646 36.9584 35.646H42.7918C43.5972 35.646 44.2501 34.993 44.2501 34.1876V21.0626C44.2371 9.79221 35.1039 0.658848 23.8334 0.645996Z" fill="#FAA515"/>
<path d="M42.7918 32.7294H4.875C2.45877 32.7294 0.5 34.6881 0.5 37.1044V63.3544C0.5 67.3814 3.76457 70.646 7.79162 70.646H39.875C43.902 70.646 47.1666 67.3814 47.1666 63.3544V37.1044C47.1667 34.6881 45.208 32.7294 42.7918 32.7294Z" fill="#FFC107"/>
<path d="M27.7737 51.6001C28.9848 50.5045 29.673 48.9457 29.6666 47.3126C29.6666 44.091 27.0549 41.4792 23.8332 41.4792C20.6116 41.4792 17.9998 44.091 17.9998 47.3126C17.9935 48.9457 18.6817 50.5045 19.8927 51.6001L18.0727 57.0601C17.8181 57.8242 18.2313 58.65 18.9954 58.9046C19.1446 58.9542 19.3009 58.9795 19.4581 58.9794H28.2081C29.0135 58.9803 29.6673 58.3283 29.6682 57.5229C29.6684 57.3657 29.6432 57.2094 29.5935 57.0603L27.7737 51.6001Z" fill="#455A64"/>
</svg>
