<svg width="131" height="91" viewBox="0 0 131 91" fill="none" xmlns="http://www.w3.org/2000/svg">
<g clip-path="url(#clip0_1115_436)">
<path d="M4.95889 77.9643C4.95889 79.1216 3.95262 80.0563 2.70677 80.0563C1.50883 80.0118 0.502563 79.0771 0.502563 77.9643C0.502563 76.807 1.50883 75.8723 2.75468 75.8723C3.95262 75.8723 4.95889 76.807 4.95889 77.9643Z" fill="#37BD8A"/>
<path d="M19.7175 77.9643C19.7175 79.1216 18.7112 80.0563 17.4654 80.0563C16.2195 80.0563 15.2133 79.1216 15.2133 77.9643C15.2133 76.807 16.2195 75.8723 17.4654 75.8723C18.7112 75.8723 19.7175 76.807 19.7175 77.9643Z" fill="#37BD8A"/>
<path d="M34.476 77.9643C34.476 79.1216 33.4698 80.0563 32.2239 80.0563C30.9781 80.0563 29.9718 79.1216 29.9718 77.9643C29.9718 76.807 30.9781 75.8723 32.2239 75.8723C33.4698 75.8723 34.476 76.807 34.476 77.9643Z" fill="#37BD8A"/>
<path d="M49.2346 77.9643C49.2346 79.1216 48.2284 80.0563 46.9825 80.0563C45.7367 80.0563 44.7304 79.1216 44.7304 77.9643C44.7304 76.807 45.7367 75.8723 46.9825 75.8723C48.2284 75.8723 49.2346 76.807 49.2346 77.9643Z" fill="#37BD8A"/>
<path d="M63.9932 77.9643C63.9932 79.1216 62.9869 80.0563 61.7411 80.0563C60.4952 80.0563 59.489 79.1216 59.489 77.9643C59.489 76.807 60.4952 75.8723 61.7411 75.8723C62.9869 75.8723 63.9932 76.807 63.9932 77.9643Z" fill="#37BD8A"/>
<path d="M78.7517 77.9643C78.7517 79.1216 77.7454 80.0563 76.4996 80.0563C75.2537 80.0563 74.2474 79.1216 74.2474 77.9643C74.2474 76.807 75.2537 75.8723 76.4996 75.8723C77.7454 75.8723 78.7517 76.807 78.7517 77.9643Z" fill="#37BD8A"/>
<path d="M93.5103 77.9643C93.5103 79.1216 92.5041 80.0563 91.2582 80.0563C90.0124 80.0563 89.0061 79.1216 89.0061 77.9643C89.0061 76.807 90.0124 75.8723 91.2582 75.8723C92.5041 75.8723 93.5103 76.807 93.5103 77.9643Z" fill="#37BD8A"/>
<path d="M108.269 77.9643C108.269 79.1216 107.263 80.0563 106.017 80.0563C104.771 80.0563 103.765 79.1216 103.765 77.9643C103.765 76.807 104.771 75.8723 106.017 75.8723C107.263 75.8723 108.269 76.807 108.269 77.9643Z" fill="#37BD8A"/>
<path d="M123.027 77.9643C123.027 79.1216 122.021 80.0563 120.775 80.0563C119.529 80.0563 118.523 79.1216 118.523 77.9643C118.523 76.807 119.529 75.8723 120.775 75.8723C122.021 75.8723 123.027 76.807 123.027 77.9643Z" fill="#37BD8A"/>
<path d="M12.434 88.7802C12.434 89.9375 11.4277 90.8722 10.1819 90.8722C8.93602 90.8722 7.92975 89.9375 7.92975 88.7802C7.92975 87.623 8.93602 86.6882 10.1819 86.6882C11.4277 86.7327 12.434 87.6675 12.434 88.7802Z" fill="#37BD8A"/>
<path d="M24.9883 90.8722C26.2321 90.8722 27.2404 89.9356 27.2404 88.7802C27.2404 87.6248 26.2321 86.6882 24.9883 86.6882C23.7445 86.6882 22.7362 87.6248 22.7362 88.7802C22.7362 89.9356 23.7445 90.8722 24.9883 90.8722Z" fill="#37BD8A"/>
<path d="M39.7469 90.8722C40.9907 90.8722 41.9991 89.9356 41.9991 88.7802C41.9991 87.6248 40.9907 86.6882 39.7469 86.6882C38.5031 86.6882 37.4948 87.6248 37.4948 88.7802C37.4948 89.9356 38.5031 90.8722 39.7469 90.8722Z" fill="#37BD8A"/>
<path d="M56.7097 88.7802C56.7097 89.9375 55.7035 90.8722 54.4576 90.8722C53.2118 90.8722 52.2055 89.9375 52.2055 88.7802C52.2055 87.623 53.2118 86.6882 54.4576 86.6882C55.7035 86.7327 56.7097 87.6675 56.7097 88.7802Z" fill="#37BD8A"/>
<path d="M71.4683 88.7802C71.4683 89.9375 70.462 90.8722 69.2162 90.8722C67.9703 90.8722 66.9641 89.9375 66.9641 88.7802C66.9641 87.623 67.9703 86.6882 69.2162 86.6882C70.462 86.7327 71.4683 87.6675 71.4683 88.7802Z" fill="#37BD8A"/>
<path d="M86.2268 88.7802C86.2268 89.9375 85.2206 90.8722 83.9747 90.8722C82.7289 90.8722 81.7226 89.9375 81.7226 88.7802C81.7226 87.623 82.7289 86.6882 83.9747 86.6882C85.2206 86.7327 86.2268 87.6675 86.2268 88.7802Z" fill="#37BD8A"/>
<path d="M98.7812 90.8722C100.025 90.8722 101.033 89.9356 101.033 88.7802C101.033 87.6248 100.025 86.6882 98.7812 86.6882C97.5374 86.6882 96.5291 87.6248 96.5291 88.7802C96.5291 89.9356 97.5374 90.8722 98.7812 90.8722Z" fill="#37BD8A"/>
<path d="M113.54 90.8722C114.784 90.8722 115.792 89.9356 115.792 88.7802C115.792 87.6248 114.784 86.6882 113.54 86.6882C112.296 86.6882 111.288 87.6248 111.288 88.7802C111.288 89.9356 112.296 90.8722 113.54 90.8722Z" fill="#37BD8A"/>
<path d="M130.503 88.7802C130.503 89.9375 129.496 90.8722 128.25 90.8722C127.005 90.8722 125.998 89.9375 125.998 88.7802C125.998 87.623 127.005 86.6882 128.25 86.6882C129.544 86.7327 130.503 87.6675 130.503 88.7802Z" fill="#37BD8A"/>
</g>
<g filter="url(#filter0_d_1115_436)">
<rect x="39.7469" y="10.7847" width="50" height="50" rx="10" fill="white"/>
</g>
<g clip-path="url(#clip1_1115_436)">
<path d="M60.5803 48.2849C62.8803 48.2849 64.7469 46.4182 64.7469 44.1181V39.9514H60.5803C58.2803 39.9514 56.4136 41.8181 56.4136 44.1181C56.4136 46.4182 58.2803 48.2849 60.5803 48.2849Z" fill="#0ACF83"/>
<path d="M56.4136 35.7846C56.4136 33.4846 58.2803 31.6179 60.5803 31.6179H64.7469V39.9512H60.5803C58.2803 39.9512 56.4136 38.0846 56.4136 35.7846Z" fill="#A259FF"/>
<path d="M56.4146 27.4513C56.4146 25.1513 58.2813 23.2847 60.5813 23.2847H64.7479V31.618H60.5813C58.2813 31.618 56.4146 29.7513 56.4146 27.4513Z" fill="#F24E1E"/>
<path d="M64.747 23.2847H68.9137C71.2137 23.2847 73.0804 25.1513 73.0804 27.4513C73.0804 29.7513 71.2137 31.618 68.9137 31.618H64.747V23.2847Z" fill="#FF7262"/>
<path d="M73.0804 35.7846C73.0804 38.0846 71.2137 39.9512 68.9137 39.9512C66.6137 39.9512 64.747 38.0846 64.747 35.7846C64.747 33.4846 66.6137 31.6179 68.9137 31.6179C71.2137 31.6179 73.0804 33.4846 73.0804 35.7846Z" fill="#1ABCFE"/>
</g>
<defs>
<filter id="filter0_d_1115_436" x="19.7469" y="0.784668" width="90" height="90" filterUnits="userSpaceOnUse" color-interpolation-filters="sRGB">
<feFlood flood-opacity="0" result="BackgroundImageFix"/>
<feColorMatrix in="SourceAlpha" type="matrix" values="0 0 0 0 0 0 0 0 0 0 0 0 0 0 0 0 0 0 127 0" result="hardAlpha"/>
<feOffset dy="10"/>
<feGaussianBlur stdDeviation="10"/>
<feColorMatrix type="matrix" values="0 0 0 0 0.0901961 0 0 0 0 0.0901961 0 0 0 0 0.0901961 0 0 0 0.1 0"/>
<feBlend mode="normal" in2="BackgroundImageFix" result="effect1_dropShadow_1115_436"/>
<feBlend mode="normal" in="SourceGraphic" in2="effect1_dropShadow_1115_436" result="shape"/>
</filter>
<clipPath id="clip0_1115_436">
<rect width="130" height="15" fill="white" transform="translate(0.502563 75.8723)"/>
</clipPath>
<clipPath id="clip1_1115_436">
<rect width="16.67" height="25" fill="white" transform="translate(56.412 23.2847)"/>
</clipPath>
</defs>
</svg>
