<svg width="20" height="21" viewBox="0 0 20 21" fill="none" xmlns="http://www.w3.org/2000/svg">
<path d="M15.9168 13.191C15.6578 13.4552 15.5388 13.8373 15.5978 14.212L16.4867 19.3906C16.5617 19.8295 16.3857 20.2737 16.0368 20.5274C15.6948 20.7905 15.2399 20.8221 14.8669 20.6116L10.4385 18.1802C10.2845 18.0939 10.1136 18.0475 9.93858 18.0423H9.66761C9.57362 18.057 9.48164 18.0886 9.39765 18.137L4.96823 20.58C4.74926 20.6958 4.50129 20.7368 4.25832 20.6958C3.6664 20.5779 3.27145 19.9843 3.36844 19.358L4.25832 14.1794C4.31731 13.8015 4.19833 13.4173 3.93936 13.1489L0.328833 9.46496C0.0268723 9.15656 -0.078114 8.69344 0.059868 8.27557C0.19385 7.85875 0.535806 7.55456 0.948752 7.48615L5.9181 6.72725C6.29605 6.6862 6.62801 6.44411 6.79799 6.08624L8.9877 1.36024C9.03969 1.25499 9.10669 1.15815 9.18768 1.07605L9.27766 1.00237C9.32466 0.947637 9.37865 0.902377 9.43864 0.865538L9.54763 0.823435L9.71761 0.749756H10.1386C10.5145 0.790806 10.8455 1.02763 11.0184 1.38129L13.2371 6.08624C13.3971 6.43043 13.7081 6.66936 14.067 6.72725L19.0364 7.48615C19.4563 7.5493 19.8073 7.85454 19.9463 8.27557C20.0773 8.69765 19.9643 9.16077 19.6563 9.46496L15.9168 13.191Z" fill="#EFBA34"/>
</svg>
