<svg width="131" height="96" viewBox="0 0 131 96" fill="none" xmlns="http://www.w3.org/2000/svg">
<g clip-path="url(#clip0_1115_435)">
<path d="M4.63894 82.7001C4.63894 83.8574 3.63267 84.7921 2.38682 84.7921C1.18888 84.7476 0.182617 83.8129 0.182617 82.7001C0.182617 81.5429 1.18888 80.6082 2.43474 80.6082C3.63267 80.6082 4.63894 81.5429 4.63894 82.7001Z" fill="#1769FF"/>
<path d="M19.3975 82.7001C19.3975 83.8574 18.3913 84.7921 17.1454 84.7921C15.8995 84.7921 14.8933 83.8574 14.8933 82.7001C14.8933 81.5429 15.8995 80.6082 17.1454 80.6082C18.3913 80.6082 19.3975 81.5429 19.3975 82.7001Z" fill="#1769FF"/>
<path d="M34.1561 82.7001C34.1561 83.8574 33.1498 84.7921 31.9039 84.7921C30.6581 84.7921 29.6518 83.8574 29.6518 82.7001C29.6518 81.5429 30.6581 80.6082 31.9039 80.6082C33.1498 80.6082 34.1561 81.5429 34.1561 82.7001Z" fill="#1769FF"/>
<path d="M48.9147 82.7001C48.9147 83.8574 47.9084 84.7921 46.6626 84.7921C45.4167 84.7921 44.4105 83.8574 44.4105 82.7001C44.4105 81.5429 45.4167 80.6082 46.6626 80.6082C47.9084 80.6082 48.9147 81.5429 48.9147 82.7001Z" fill="#1769FF"/>
<path d="M63.6733 82.7001C63.6733 83.8574 62.667 84.7921 61.4211 84.7921C60.1753 84.7921 59.169 83.8574 59.169 82.7001C59.169 81.5429 60.1753 80.6082 61.4211 80.6082C62.667 80.6082 63.6733 81.5429 63.6733 82.7001Z" fill="#1769FF"/>
<path d="M78.4318 82.7001C78.4318 83.8574 77.4255 84.7921 76.1796 84.7921C74.9338 84.7921 73.9275 83.8574 73.9275 82.7001C73.9275 81.5429 74.9338 80.6082 76.1796 80.6082C77.4255 80.6082 78.4318 81.5429 78.4318 82.7001Z" fill="#1769FF"/>
<path d="M93.1904 82.7001C93.1904 83.8574 92.1841 84.7921 90.9383 84.7921C89.6924 84.7921 88.6862 83.8574 88.6862 82.7001C88.6862 81.5429 89.6924 80.6082 90.9383 80.6082C92.1841 80.6082 93.1904 81.5429 93.1904 82.7001Z" fill="#1769FF"/>
<path d="M107.949 82.7001C107.949 83.8574 106.943 84.7921 105.697 84.7921C104.451 84.7921 103.445 83.8574 103.445 82.7001C103.445 81.5429 104.451 80.6082 105.697 80.6082C106.943 80.6082 107.949 81.5429 107.949 82.7001Z" fill="#1769FF"/>
<path d="M122.707 82.7001C122.707 83.8574 121.701 84.7921 120.455 84.7921C119.21 84.7921 118.203 83.8574 118.203 82.7001C118.203 81.5429 119.21 80.6082 120.455 80.6082C121.701 80.6082 122.707 81.5429 122.707 82.7001Z" fill="#1769FF"/>
<path d="M12.114 93.5161C12.114 94.6733 11.1078 95.6081 9.86192 95.6081C8.61607 95.6081 7.6098 94.6733 7.6098 93.5161C7.6098 92.3588 8.61607 91.4241 9.86192 91.4241C11.1078 91.4686 12.114 92.4033 12.114 93.5161Z" fill="#1769FF"/>
<path d="M24.6684 95.6081C25.9122 95.6081 26.9205 94.6714 26.9205 93.5161C26.9205 92.3607 25.9122 91.4241 24.6684 91.4241C23.4246 91.4241 22.4163 92.3607 22.4163 93.5161C22.4163 94.6714 23.4246 95.6081 24.6684 95.6081Z" fill="#1769FF"/>
<path d="M39.427 95.6081C40.6708 95.6081 41.6791 94.6714 41.6791 93.5161C41.6791 92.3607 40.6708 91.4241 39.427 91.4241C38.1832 91.4241 37.1749 92.3607 37.1749 93.5161C37.1749 94.6714 38.1832 95.6081 39.427 95.6081Z" fill="#1769FF"/>
<path d="M56.3898 93.5161C56.3898 94.6733 55.3835 95.608 54.1377 95.608C52.8918 95.608 51.8856 94.6733 51.8856 93.5161C51.8856 92.3588 52.8918 91.4241 54.1377 91.4241C55.3835 91.4686 56.3898 92.4033 56.3898 93.5161Z" fill="#1769FF"/>
<path d="M71.1484 93.5161C71.1484 94.6733 70.1421 95.6081 68.8962 95.6081C67.6504 95.6081 66.6441 94.6733 66.6441 93.5161C66.6441 92.3588 67.6504 91.4241 68.8962 91.4241C70.1421 91.4686 71.1484 92.4033 71.1484 93.5161Z" fill="#1769FF"/>
<path d="M85.9069 93.5161C85.9069 94.6733 84.9006 95.6081 83.6548 95.6081C82.4089 95.6081 81.4026 94.6733 81.4026 93.5161C81.4026 92.3588 82.4089 91.4241 83.6548 91.4241C84.9006 91.4686 85.9069 92.4033 85.9069 93.5161Z" fill="#1769FF"/>
<path d="M98.4612 95.608C99.705 95.608 100.713 94.6714 100.713 93.5161C100.713 92.3607 99.705 91.4241 98.4612 91.4241C97.2174 91.4241 96.2091 92.3607 96.2091 93.5161C96.2091 94.6714 97.2174 95.608 98.4612 95.608Z" fill="#1769FF"/>
<path d="M113.22 95.608C114.464 95.608 115.472 94.6714 115.472 93.5161C115.472 92.3607 114.464 91.4241 113.22 91.4241C111.976 91.4241 110.968 92.3607 110.968 93.5161C110.968 94.6714 111.976 95.608 113.22 95.608Z" fill="#1769FF"/>
<path d="M130.183 93.5161C130.183 94.6733 129.176 95.608 127.931 95.608C126.685 95.608 125.678 94.6733 125.678 93.5161C125.678 92.3588 126.685 91.4241 127.931 91.4241C129.224 91.4686 130.183 92.4033 130.183 93.5161Z" fill="#1769FF"/>
</g>
<g filter="url(#filter0_d_1115_435)">
<rect x="37.1748" y="10.6082" width="50" height="50" rx="10" fill="white"/>
<g clip-path="url(#clip1_1115_435)">
<path d="M55.4271 25.1914C56.4192 25.1914 57.3237 25.2789 58.1407 25.4541C58.9577 25.6292 59.658 25.9164 60.2415 26.3147C60.825 26.7135 61.2773 27.2437 61.5983 27.9052C61.9193 28.5667 62.0798 29.3836 62.0798 30.3561C62.0798 31.4067 61.8415 32.282 61.3649 32.9821C60.8881 33.6824 60.1832 34.2561 59.2496 34.7037C60.5333 35.0733 61.4913 35.7205 62.1237 36.644C62.7554 37.5682 63.0722 38.682 63.0722 39.985C63.0722 41.0354 62.868 41.945 62.4592 42.7135C62.051 43.4822 61.5011 44.1094 60.8109 44.5951C60.1203 45.0817 59.3324 45.4412 58.4474 45.6751C57.5569 45.909 56.6399 46.0266 55.7192 46.0249H45.6231V25.1914H55.4271ZM54.8436 33.6243C55.6606 33.6243 56.3316 33.4298 56.8569 33.0406C57.3821 32.6517 57.6446 32.0194 57.6446 31.144C57.6446 30.6579 57.5572 30.2589 57.3821 29.9477C57.2071 29.6367 56.9737 29.393 56.6819 29.2183C56.39 29.0431 56.0545 28.922 55.6752 28.8534C55.2851 28.7845 54.8896 28.7504 54.4934 28.7514H50.2042V33.6244H54.8436V33.6243ZM55.1061 42.4651C55.5533 42.4651 55.9814 42.4212 56.3899 42.3338C56.7983 42.2461 57.158 42.1002 57.4696 41.8958C57.7805 41.6919 58.0286 41.4145 58.2136 41.0642C58.3982 40.7143 58.4907 40.2669 58.4907 39.722C58.4907 38.6525 58.1889 37.889 57.5862 37.4317C56.983 36.9746 56.1855 36.7458 55.1935 36.7458H50.2042V42.4648L55.1061 42.4651ZM68.8372 42.0275C69.4596 42.6311 70.3545 42.932 71.5217 42.932C72.3577 42.932 73.0777 42.7233 73.6806 42.3048C74.2836 41.8871 74.6533 41.4442 74.7895 40.9771H78.4367C77.8534 42.7861 76.9582 44.08 75.7524 44.8577C74.546 45.636 73.087 46.0249 71.3754 46.0249C70.1889 46.0249 69.1188 45.8353 68.1657 45.4558C67.2124 45.0767 66.405 44.5367 65.7441 43.8365C65.0826 43.1364 64.572 42.3005 64.2121 41.3274C63.852 40.355 63.6725 39.2849 63.6725 38.1177C63.6725 36.9898 63.8568 35.9394 64.2268 34.9667C64.596 33.9943 65.121 33.1529 65.8026 32.4425C66.483 31.7328 67.2954 31.1735 68.2389 30.7649C69.1822 30.3563 70.2278 30.1523 71.3756 30.1523C72.6595 30.1523 73.7778 30.4002 74.7313 30.8962C75.6842 31.3921 76.4673 32.0591 77.0803 32.8949C77.6929 33.7314 78.1351 34.6848 78.4081 35.7542C78.6804 36.8244 78.7773 37.9427 78.6999 39.1098H67.8163C67.8744 40.4517 68.2143 41.4248 68.8372 42.0275ZM73.5203 34.091C73.0244 33.5466 72.2703 33.274 71.2591 33.274C70.5976 33.274 70.0482 33.3861 69.6107 33.6095C69.1729 33.8336 68.8226 34.1102 68.5599 34.4412C68.2976 34.7721 68.1124 35.1224 68.0057 35.4916C67.8986 35.8612 67.8353 36.192 67.8159 36.4837H74.5561C74.3617 35.4331 74.0165 34.6358 73.5203 34.091ZM67.1084 26.2493H75.5298V28.5843H67.1084V26.2493Z" fill="#1769FF"/>
</g>
</g>
<defs>
<filter id="filter0_d_1115_435" x="17.1748" y="0.608154" width="90" height="90" filterUnits="userSpaceOnUse" color-interpolation-filters="sRGB">
<feFlood flood-opacity="0" result="BackgroundImageFix"/>
<feColorMatrix in="SourceAlpha" type="matrix" values="0 0 0 0 0 0 0 0 0 0 0 0 0 0 0 0 0 0 127 0" result="hardAlpha"/>
<feOffset dy="10"/>
<feGaussianBlur stdDeviation="10"/>
<feColorMatrix type="matrix" values="0 0 0 0 0.0901961 0 0 0 0 0.0901961 0 0 0 0 0.0901961 0 0 0 0.1 0"/>
<feBlend mode="normal" in2="BackgroundImageFix" result="effect1_dropShadow_1115_435"/>
<feBlend mode="normal" in="SourceGraphic" in2="effect1_dropShadow_1115_435" result="shape"/>
</filter>
<clipPath id="clip0_1115_435">
<rect width="130" height="15" fill="white" transform="translate(0.182617 80.6082)"/>
</clipPath>
<clipPath id="clip1_1115_435">
<rect width="33.1108" height="20.8333" fill="white" transform="translate(45.6194 25.1914)"/>
</clipPath>
</defs>
</svg>
